<svg xmlns="http://www.w3.org/2000/svg" viewBox="0 0 512 512" width="512" height="512">
  <defs>
    <linearGradient id="waveGrad" x1="0" y1="0" x2="1" y2="0">
      <stop offset="0%"   stop-color="#C8856C" stop-opacity="0"/>
      <stop offset="15%"  stop-color="#C8856C" stop-opacity="1"/>
      <stop offset="50%"  stop-color="#D49A82" stop-opacity="1"/>
      <stop offset="85%"  stop-color="#C8856C" stop-opacity="1"/>
      <stop offset="100%" stop-color="#C8856C" stop-opacity="0"/>
    </linearGradient>
    <radialGradient id="glow" cx="0.5" cy="0.5" r="0.5">
      <stop offset="0%"   stop-color="#D9A58E" stop-opacity="0.19"/>
      <stop offset="50%"  stop-color="#C8856C" stop-opacity="0.08"/>
      <stop offset="100%" stop-color="#C8856C" stop-opacity="0"/>
    </radialGradient>
  </defs>
  <circle cx="256" cy="256" r="220" fill="url(#glow)"/>
  <path d="M46.00,166.00 C47.49,166.40 51.96,167.82 54.94,168.42 C57.91,169.02 60.89,169.30 63.87,169.62 C66.85,169.94 69.83,170.13 72.81,170.34 C75.79,170.55 78.77,170.69 81.74,170.86 C84.72,171.04 87.70,171.20 90.68,171.39 C93.66,171.58 96.64,171.80 99.62,172.00 C102.60,172.20 105.57,172.43 108.55,172.58 C111.53,172.73 114.51,172.89 117.49,172.88 C120.47,172.87 123.45,172.82 126.43,172.51 C129.40,172.20 132.38,171.77 135.36,171.03 C138.34,170.29 141.32,169.33 144.30,168.06 C147.28,166.79 150.26,165.22 153.23,163.39 C156.21,161.55 159.19,159.38 162.17,157.04 C165.15,154.70 168.13,152.04 171.11,149.36 C174.09,146.67 177.06,143.73 180.04,140.95 C183.02,138.17 186.00,135.25 188.98,132.68 C191.96,130.10 194.94,127.55 197.91,125.50 C200.89,123.44 203.87,121.60 206.85,120.34 C209.83,119.09 212.81,118.22 215.79,117.97 C218.77,117.72 221.74,118.00 224.72,118.84 C227.70,119.68 230.68,121.12 233.66,123.02 C236.64,124.91 239.62,127.41 242.60,130.19 C245.57,132.96 248.55,136.28 251.53,139.68 C254.51,143.07 257.49,146.88 260.47,150.57 C263.45,154.27 266.43,158.19 269.40,161.84 C272.38,165.50 275.36,169.19 278.34,172.51 C281.32,175.82 284.30,178.99 287.28,181.75 C290.26,184.50 293.23,186.96 296.21,189.02 C299.19,191.07 302.17,192.75 305.15,194.07 C308.13,195.40 311.11,196.32 314.09,196.97 C317.06,197.62 320.04,197.88 323.02,197.97 C326.00,198.05 328.98,197.82 331.96,197.48 C334.94,197.14 337.91,196.56 340.89,195.93 C343.87,195.30 346.85,194.51 349.83,193.69 C352.81,192.87 355.79,191.96 358.77,191.02 C361.74,190.09 364.72,189.09 367.70,188.06 C370.68,187.03 373.66,185.95 376.64,184.82 C379.62,183.70 382.60,182.52 385.57,181.30 C388.55,180.08 391.53,178.80 394.51,177.50 C397.49,176.20 400.47,174.83 403.45,173.49 C406.43,172.16 409.40,170.77 412.38,169.49 C415.36,168.21 418.34,166.91 421.32,165.80 C424.30,164.69 427.28,163.63 430.26,162.83 C433.23,162.02 436.21,161.35 439.19,160.98 C442.17,160.60 445.15,160.43 448.13,160.60 C451.11,160.77 454.09,161.10 457.06,162.00 C460.04,162.90 464.51,165.33 466.00,166.00" fill="none" stroke="url(#waveGrad)" stroke-width="1" opacity="0.18" stroke-linecap="round"/>
  <path d="M46.00,346.00 C47.49,346.40 51.96,347.82 54.94,348.42 C57.91,349.02 60.89,349.30 63.87,349.62 C66.85,349.94 69.83,350.13 72.81,350.34 C75.79,350.55 78.77,350.69 81.74,350.86 C84.72,351.04 87.70,351.20 90.68,351.39 C93.66,351.58 96.64,351.80 99.62,352.00 C102.60,352.20 105.57,352.43 108.55,352.58 C111.53,352.73 114.51,352.89 117.49,352.88 C120.47,352.87 123.45,352.82 126.43,352.51 C129.40,352.20 132.38,351.77 135.36,351.03 C138.34,350.29 141.32,349.33 144.30,348.06 C147.28,346.79 150.26,345.22 153.23,343.39 C156.21,341.55 159.19,339.38 162.17,337.04 C165.15,334.70 168.13,332.04 171.11,329.36 C174.09,326.67 177.06,323.73 180.04,320.95 C183.02,318.17 186.00,315.25 188.98,312.68 C191.96,310.10 194.94,307.55 197.91,305.50 C200.89,303.44 203.87,301.60 206.85,300.34 C209.83,299.09 212.81,298.22 215.79,297.97 C218.77,297.72 221.74,298.00 224.72,298.84 C227.70,299.68 230.68,301.12 233.66,303.02 C236.64,304.91 239.62,307.41 242.60,310.19 C245.57,312.96 248.55,316.28 251.53,319.68 C254.51,323.07 257.49,326.88 260.47,330.57 C263.45,334.27 266.43,338.19 269.40,341.84 C272.38,345.50 275.36,349.19 278.34,352.51 C281.32,355.82 284.30,358.99 287.28,361.75 C290.26,364.50 293.23,366.96 296.21,369.02 C299.19,371.07 302.17,372.75 305.15,374.07 C308.13,375.40 311.11,376.32 314.09,376.97 C317.06,377.62 320.04,377.88 323.02,377.97 C326.00,378.05 328.98,377.82 331.96,377.48 C334.94,377.14 337.91,376.56 340.89,375.93 C343.87,375.30 346.85,374.51 349.83,373.69 C352.81,372.87 355.79,371.96 358.77,371.02 C361.74,370.09 364.72,369.09 367.70,368.06 C370.68,367.03 373.66,365.95 376.64,364.82 C379.62,363.70 382.60,362.52 385.57,361.30 C388.55,360.08 391.53,358.80 394.51,357.50 C397.49,356.20 400.47,354.83 403.45,353.49 C406.43,352.16 409.40,350.77 412.38,349.49 C415.36,348.21 418.34,346.91 421.32,345.80 C424.30,344.69 427.28,343.63 430.26,342.83 C433.23,342.02 436.21,341.35 439.19,340.98 C442.17,340.60 445.15,340.43 448.13,340.60 C451.11,340.77 454.09,341.10 457.06,342.00 C460.04,342.90 464.51,345.33 466.00,346.00" fill="none" stroke="url(#waveGrad)" stroke-width="1" opacity="0.18" stroke-linecap="round"/>
  <path d="M46.00,190.00 C47.49,190.49 51.96,192.21 54.94,192.95 C57.91,193.68 60.89,194.02 63.87,194.41 C66.85,194.80 69.83,195.03 72.81,195.29 C75.79,195.54 78.77,195.71 81.74,195.92 C84.72,196.14 87.70,196.34 90.68,196.57 C93.66,196.80 96.64,197.06 99.62,197.31 C102.60,197.55 105.57,197.84 108.55,198.02 C111.53,198.20 114.51,198.40 117.49,198.38 C120.47,198.37 123.45,198.30 126.43,197.93 C129.40,197.55 132.38,197.03 135.36,196.13 C138.34,195.22 141.32,194.06 144.30,192.51 C147.28,190.96 150.26,189.05 153.23,186.82 C156.21,184.58 159.19,181.94 162.17,179.09 C165.15,176.24 168.13,172.99 171.11,169.72 C174.09,166.46 177.06,162.87 180.04,159.49 C183.02,156.10 186.00,152.54 188.98,149.41 C191.96,146.27 194.94,143.16 197.91,140.66 C200.89,138.16 203.87,135.91 206.85,134.38 C209.83,132.85 212.81,131.80 215.79,131.49 C218.77,131.19 221.74,131.52 224.72,132.55 C227.70,133.57 230.68,135.33 233.66,137.64 C236.64,139.94 239.62,142.99 242.60,146.37 C245.57,149.75 248.55,153.79 251.53,157.93 C254.51,162.07 257.49,166.70 260.47,171.21 C263.45,175.71 266.43,180.48 269.40,184.94 C272.38,189.39 275.36,193.88 278.34,197.92 C281.32,201.97 284.30,205.83 287.28,209.18 C290.26,212.53 293.23,215.53 296.21,218.04 C299.19,220.54 302.17,222.59 305.15,224.20 C308.13,225.82 311.11,226.94 314.09,227.73 C317.06,228.52 320.04,228.84 323.02,228.95 C326.00,229.05 328.98,228.76 331.96,228.35 C334.94,227.93 337.91,227.23 340.89,226.46 C343.87,225.69 346.85,224.73 349.83,223.73 C352.81,222.74 355.79,221.63 358.77,220.48 C361.74,219.34 364.72,218.13 367.70,216.87 C370.68,215.61 373.66,214.30 376.64,212.93 C379.62,211.56 382.60,210.13 385.57,208.64 C388.55,207.15 391.53,205.59 394.51,204.01 C397.49,202.42 400.47,200.75 403.45,199.13 C406.43,197.50 409.40,195.81 412.38,194.25 C415.36,192.69 418.34,191.11 421.32,189.76 C424.30,188.41 427.28,187.12 430.26,186.14 C433.23,185.16 436.21,184.33 439.19,183.88 C442.17,183.43 445.15,183.22 448.13,183.43 C451.11,183.63 454.09,184.03 457.06,185.13 C460.04,186.22 464.51,189.19 466.00,190.00" fill="none" stroke="url(#waveGrad)" stroke-width="1.5" opacity="0.35" stroke-linecap="round"/>
  <path d="M46.00,322.00 C47.49,322.49 51.96,324.21 54.94,324.95 C57.91,325.68 60.89,326.02 63.87,326.41 C66.85,326.80 69.83,327.03 72.81,327.29 C75.79,327.54 78.77,327.71 81.74,327.92 C84.72,328.14 87.70,328.34 90.68,328.57 C93.66,328.80 96.64,329.06 99.62,329.31 C102.60,329.55 105.57,329.84 108.55,330.02 C111.53,330.20 114.51,330.40 117.49,330.38 C120.47,330.37 123.45,330.30 126.43,329.93 C129.40,329.55 132.38,329.03 135.36,328.13 C138.34,327.22 141.32,326.06 144.30,324.51 C147.28,322.96 150.26,321.05 153.23,318.82 C156.21,316.58 159.19,313.94 162.17,311.09 C165.15,308.24 168.13,304.99 171.11,301.72 C174.09,298.46 177.06,294.87 180.04,291.49 C183.02,288.10 186.00,284.54 188.98,281.41 C191.96,278.27 194.94,275.16 197.91,272.66 C200.89,270.16 203.87,267.91 206.85,266.38 C209.83,264.85 212.81,263.80 215.79,263.49 C218.77,263.19 221.74,263.52 224.72,264.55 C227.70,265.57 230.68,267.33 233.66,269.64 C236.64,271.94 239.62,274.99 242.60,278.37 C245.57,281.75 248.55,285.79 251.53,289.93 C254.51,294.07 257.49,298.70 260.47,303.21 C263.45,307.71 266.43,312.48 269.40,316.94 C272.38,321.39 275.36,325.88 278.34,329.92 C281.32,333.97 284.30,337.83 287.28,341.18 C290.26,344.53 293.23,347.53 296.21,350.04 C299.19,352.54 302.17,354.59 305.15,356.20 C308.13,357.82 311.11,358.94 314.09,359.73 C317.06,360.52 320.04,360.84 323.02,360.95 C326.00,361.05 328.98,360.76 331.96,360.35 C334.94,359.93 337.91,359.23 340.89,358.46 C343.87,357.69 346.85,356.73 349.83,355.73 C352.81,354.74 355.79,353.63 358.77,352.48 C361.74,351.34 364.72,350.13 367.70,348.87 C370.68,347.61 373.66,346.30 376.64,344.93 C379.62,343.56 382.60,342.13 385.57,340.64 C388.55,339.15 391.53,337.59 394.51,336.01 C397.49,334.42 400.47,332.75 403.45,331.13 C406.43,329.50 409.40,327.81 412.38,326.25 C415.36,324.69 418.34,323.11 421.32,321.76 C424.30,320.41 427.28,319.12 430.26,318.14 C433.23,317.16 436.21,316.33 439.19,315.88 C442.17,315.43 445.15,315.22 448.13,315.43 C451.11,315.63 454.09,316.03 457.06,317.13 C460.04,318.22 464.51,321.19 466.00,322.00" fill="none" stroke="url(#waveGrad)" stroke-width="1.5" opacity="0.35" stroke-linecap="round"/>
  <path d="M46.00,214.00 C47.49,214.58 51.96,216.61 54.94,217.48 C57.91,218.34 60.89,218.74 63.87,219.20 C66.85,219.66 69.83,219.94 72.81,220.23 C75.79,220.53 78.77,220.73 81.74,220.98 C84.72,221.24 87.70,221.47 90.68,221.75 C93.66,222.02 96.64,222.33 99.62,222.61 C102.60,222.90 105.57,223.24 108.55,223.45 C111.53,223.66 114.51,223.90 117.49,223.88 C120.47,223.87 123.45,223.79 126.43,223.35 C129.40,222.91 132.38,222.29 135.36,221.22 C138.34,220.16 141.32,218.79 144.30,216.96 C147.28,215.13 150.26,212.88 153.23,210.25 C156.21,207.61 159.19,204.49 162.17,201.13 C165.15,197.77 168.13,193.94 171.11,190.09 C174.09,186.24 177.06,182.01 180.04,178.02 C183.02,174.03 186.00,169.84 188.98,166.14 C191.96,162.44 194.94,158.78 197.91,155.82 C200.89,152.87 203.87,150.22 206.85,148.42 C209.83,146.62 212.81,145.37 215.79,145.01 C218.77,144.65 221.74,145.05 224.72,146.26 C227.70,147.46 230.68,149.54 233.66,152.26 C236.64,154.98 239.62,158.57 242.60,162.56 C245.57,166.55 248.55,171.31 251.53,176.19 C254.51,181.07 257.49,186.53 260.47,191.84 C263.45,197.15 266.43,202.78 269.40,208.03 C272.38,213.28 275.36,218.58 278.34,223.34 C281.32,228.11 284.30,232.66 287.28,236.62 C290.26,240.57 293.23,244.11 296.21,247.06 C299.19,250.01 302.17,252.42 305.15,254.33 C308.13,256.23 311.11,257.55 314.09,258.48 C317.06,259.42 320.04,259.80 323.02,259.92 C326.00,260.04 328.98,259.70 331.96,259.22 C334.94,258.73 337.91,257.90 340.89,256.99 C343.87,256.08 346.85,254.95 349.83,253.78 C352.81,252.60 355.79,251.29 358.77,249.94 C361.74,248.60 364.72,247.17 367.70,245.69 C370.68,244.20 373.66,242.66 376.64,241.04 C379.62,239.42 382.60,237.73 385.57,235.98 C388.55,234.23 391.53,232.38 394.51,230.51 C397.49,228.64 400.47,226.68 403.45,224.76 C406.43,222.85 409.40,220.85 412.38,219.01 C415.36,217.17 418.34,215.31 421.32,213.72 C424.30,212.12 427.28,210.60 430.26,209.45 C433.23,208.29 436.21,207.32 439.19,206.78 C442.17,206.25 445.15,206.00 448.13,206.25 C451.11,206.49 454.09,206.96 457.06,208.25 C460.04,209.54 464.51,213.04 466.00,214.00" fill="none" stroke="url(#waveGrad)" stroke-width="2.2" opacity="0.55" stroke-linecap="round"/>
  <path d="M46.00,298.00 C47.49,298.58 51.96,300.61 54.94,301.48 C57.91,302.34 60.89,302.74 63.87,303.20 C66.85,303.66 69.83,303.94 72.81,304.23 C75.79,304.53 78.77,304.73 81.74,304.98 C84.72,305.24 87.70,305.47 90.68,305.75 C93.66,306.02 96.64,306.33 99.62,306.61 C102.60,306.90 105.57,307.24 108.55,307.45 C111.53,307.66 114.51,307.90 117.49,307.88 C120.47,307.87 123.45,307.79 126.43,307.35 C129.40,306.91 132.38,306.29 135.36,305.22 C138.34,304.16 141.32,302.79 144.30,300.96 C147.28,299.13 150.26,296.88 153.23,294.25 C156.21,291.61 159.19,288.49 162.17,285.13 C165.15,281.77 168.13,277.94 171.11,274.09 C174.09,270.24 177.06,266.01 180.04,262.02 C183.02,258.03 186.00,253.84 188.98,250.14 C191.96,246.44 194.94,242.78 197.91,239.82 C200.89,236.87 203.87,234.22 206.85,232.42 C209.83,230.62 212.81,229.37 215.79,229.01 C218.77,228.65 221.74,229.05 224.72,230.26 C227.70,231.46 230.68,233.54 233.66,236.26 C236.64,238.98 239.62,242.57 242.60,246.56 C245.57,250.55 248.55,255.31 251.53,260.19 C254.51,265.07 257.49,270.53 260.47,275.84 C263.45,281.15 266.43,286.78 269.40,292.03 C272.38,297.28 275.36,302.58 278.34,307.34 C281.32,312.11 284.30,316.66 287.28,320.62 C290.26,324.57 293.23,328.11 296.21,331.06 C299.19,334.01 302.17,336.42 305.15,338.33 C308.13,340.23 311.11,341.55 314.09,342.48 C317.06,343.42 320.04,343.80 323.02,343.92 C326.00,344.04 328.98,343.70 331.96,343.22 C334.94,342.73 337.91,341.90 340.89,340.99 C343.87,340.08 346.85,338.95 349.83,337.78 C352.81,336.60 355.79,335.29 358.77,333.94 C361.74,332.60 364.72,331.17 367.70,329.69 C370.68,328.20 373.66,326.66 376.64,325.04 C379.62,323.42 382.60,321.73 385.57,319.98 C388.55,318.23 391.53,316.38 394.51,314.51 C397.49,312.64 400.47,310.68 403.45,308.76 C406.43,306.85 409.40,304.85 412.38,303.01 C415.36,301.17 418.34,299.31 421.32,297.72 C424.30,296.12 427.28,294.60 430.26,293.45 C433.23,292.29 436.21,291.32 439.19,290.78 C442.17,290.25 445.15,290.00 448.13,290.25 C451.11,290.49 454.09,290.96 457.06,292.25 C460.04,293.54 464.51,297.04 466.00,298.00" fill="none" stroke="url(#waveGrad)" stroke-width="2.2" opacity="0.55" stroke-linecap="round"/>
  <path d="M46.00,236.00 C47.49,236.66 51.96,238.97 54.94,239.96 C57.91,240.95 60.89,241.41 63.87,241.93 C66.85,242.45 69.83,242.76 72.81,243.10 C75.79,243.44 78.77,243.67 81.74,243.96 C84.72,244.24 87.70,244.51 90.68,244.82 C93.66,245.13 96.64,245.49 99.62,245.81 C102.60,246.14 105.57,246.53 108.55,246.77 C111.53,247.01 114.51,247.28 117.49,247.26 C120.47,247.24 123.45,247.16 126.43,246.65 C129.40,246.15 132.38,245.44 135.36,244.23 C138.34,243.02 141.32,241.46 144.30,239.37 C147.28,237.29 150.26,234.73 153.23,231.72 C156.21,228.72 159.19,225.17 162.17,221.34 C165.15,217.51 168.13,213.15 171.11,208.76 C174.09,204.37 177.06,199.56 180.04,195.01 C183.02,190.46 186.00,185.69 188.98,181.47 C191.96,177.26 194.94,173.09 197.91,169.72 C200.89,166.36 203.87,163.34 206.85,161.29 C209.83,159.24 212.81,157.82 215.79,157.41 C218.77,157.00 221.74,157.45 224.72,158.82 C227.70,160.20 230.68,162.57 233.66,165.66 C236.64,168.76 239.62,172.85 242.60,177.39 C245.57,181.94 248.55,187.37 251.53,192.93 C254.51,198.49 257.49,204.71 260.47,210.75 C263.45,216.80 266.43,223.22 269.40,229.20 C272.38,235.18 275.36,241.22 278.34,246.64 C281.32,252.07 284.30,257.26 287.28,261.77 C290.26,266.27 293.23,270.30 296.21,273.66 C299.19,277.03 302.17,279.77 305.15,281.94 C308.13,284.11 311.11,285.61 314.09,286.68 C317.06,287.74 320.04,288.17 323.02,288.31 C326.00,288.45 328.98,288.07 331.96,287.51 C334.94,286.96 337.91,286.01 340.89,284.98 C343.87,283.94 346.85,282.65 349.83,281.31 C352.81,279.98 355.79,278.49 358.77,276.95 C361.74,275.41 364.72,273.79 367.70,272.10 C370.68,270.41 373.66,268.65 376.64,266.80 C379.62,264.96 382.60,263.04 385.57,261.04 C388.55,259.04 391.53,256.94 394.51,254.81 C397.49,252.68 400.47,250.44 403.45,248.26 C406.43,246.08 409.40,243.81 412.38,241.71 C415.36,239.61 418.34,237.50 421.32,235.68 C424.30,233.86 427.28,232.13 430.26,230.81 C433.23,229.49 436.21,228.39 439.19,227.78 C442.17,227.17 445.15,226.89 448.13,227.17 C451.11,227.45 454.09,227.98 457.06,229.45 C460.04,230.92 464.51,234.91 466.00,236.00" fill="none" stroke="url(#waveGrad)" stroke-width="3" opacity="0.75" stroke-linecap="round"/>
  <path d="M46.00,276.00 C47.49,276.66 51.96,278.97 54.94,279.96 C57.91,280.95 60.89,281.41 63.87,281.93 C66.85,282.45 69.83,282.76 72.81,283.10 C75.79,283.44 78.77,283.67 81.74,283.96 C84.72,284.24 87.70,284.51 90.68,284.82 C93.66,285.13 96.64,285.49 99.62,285.81 C102.60,286.14 105.57,286.53 108.55,286.77 C111.53,287.01 114.51,287.28 117.49,287.26 C120.47,287.24 123.45,287.16 126.43,286.65 C129.40,286.15 132.38,285.44 135.36,284.23 C138.34,283.02 141.32,281.46 144.30,279.37 C147.28,277.29 150.26,274.73 153.23,271.72 C156.21,268.72 159.19,265.17 162.17,261.34 C165.15,257.51 168.13,253.15 171.11,248.76 C174.09,244.37 177.06,239.56 180.04,235.01 C183.02,230.46 186.00,225.69 188.98,221.47 C191.96,217.26 194.94,213.09 197.91,209.72 C200.89,206.36 203.87,203.34 206.85,201.29 C209.83,199.24 212.81,197.82 215.79,197.41 C218.77,197.00 221.74,197.45 224.72,198.82 C227.70,200.20 230.68,202.57 233.66,205.66 C236.64,208.76 239.62,212.85 242.60,217.39 C245.57,221.94 248.55,227.37 251.53,232.93 C254.51,238.49 257.49,244.71 260.47,250.75 C263.45,256.80 266.43,263.22 269.40,269.20 C272.38,275.18 275.36,281.22 278.34,286.64 C281.32,292.07 284.30,297.26 287.28,301.77 C290.26,306.27 293.23,310.30 296.21,313.66 C299.19,317.03 302.17,319.77 305.15,321.94 C308.13,324.11 311.11,325.61 314.09,326.68 C317.06,327.74 320.04,328.17 323.02,328.31 C326.00,328.45 328.98,328.07 331.96,327.51 C334.94,326.96 337.91,326.01 340.89,324.98 C343.87,323.94 346.85,322.65 349.83,321.31 C352.81,319.98 355.79,318.49 358.77,316.95 C361.74,315.41 364.72,313.79 367.70,312.10 C370.68,310.41 373.66,308.65 376.64,306.80 C379.62,304.96 382.60,303.04 385.57,301.04 C388.55,299.04 391.53,296.94 394.51,294.81 C397.49,292.68 400.47,290.44 403.45,288.26 C406.43,286.08 409.40,283.81 412.38,281.71 C415.36,279.61 418.34,277.50 421.32,275.68 C424.30,273.86 427.28,272.13 430.26,270.81 C433.23,269.49 436.21,268.39 439.19,267.78 C442.17,267.17 445.15,266.89 448.13,267.17 C451.11,267.45 454.09,267.98 457.06,269.45 C460.04,270.92 464.51,274.91 466.00,276.00" fill="none" stroke="url(#waveGrad)" stroke-width="3" opacity="0.75" stroke-linecap="round"/>
  <path d="M46.00,256.00 C47.49,256.73 51.96,259.30 54.94,260.40 C57.91,261.50 60.89,262.01 63.87,262.59 C66.85,263.17 69.83,263.51 72.81,263.89 C75.79,264.26 78.77,264.52 81.74,264.84 C84.72,265.16 87.70,265.46 90.68,265.80 C93.66,266.15 96.64,266.54 99.62,266.90 C102.60,267.26 105.57,267.70 108.55,267.96 C111.53,268.23 114.51,268.53 117.49,268.51 C120.47,268.49 123.45,268.39 126.43,267.83 C129.40,267.27 132.38,266.49 135.36,265.14 C138.34,263.79 141.32,262.06 144.30,259.75 C147.28,257.43 150.26,254.59 153.23,251.25 C156.21,247.91 159.19,243.96 162.17,239.71 C165.15,235.46 168.13,230.61 171.11,225.74 C174.09,220.86 177.06,215.51 180.04,210.46 C183.02,205.40 186.00,200.10 188.98,195.41 C191.96,190.73 194.94,186.10 197.91,182.36 C200.89,178.62 203.87,175.27 206.85,172.99 C209.83,170.71 212.81,169.13 215.79,168.67 C218.77,168.22 221.74,168.72 224.72,170.25 C227.70,171.78 230.68,174.41 233.66,177.85 C236.64,181.29 239.62,185.83 242.60,190.88 C245.57,195.93 248.55,201.96 251.53,208.14 C254.51,214.32 257.49,221.23 260.47,227.95 C263.45,234.66 266.43,241.79 269.40,248.44 C272.38,255.09 275.36,261.80 278.34,267.83 C281.32,273.86 284.30,279.62 287.28,284.63 C290.26,289.63 293.23,294.11 296.21,297.85 C299.19,301.58 302.17,304.64 305.15,307.05 C308.13,309.46 311.11,311.13 314.09,312.31 C317.06,313.49 320.04,313.97 323.02,314.13 C326.00,314.28 328.98,313.85 331.96,313.24 C334.94,312.62 337.91,311.57 340.89,310.42 C343.87,309.27 346.85,307.84 349.83,306.35 C352.81,304.86 355.79,303.21 358.77,301.50 C361.74,299.79 364.72,297.99 367.70,296.11 C370.68,294.23 373.66,292.27 376.64,290.23 C379.62,288.18 382.60,286.04 385.57,283.82 C388.55,281.60 391.53,279.27 394.51,276.90 C397.49,274.54 400.47,272.05 403.45,269.62 C406.43,267.20 409.40,264.68 412.38,262.35 C415.36,260.02 418.34,257.66 421.32,255.64 C424.30,253.62 427.28,251.70 430.26,250.23 C433.23,248.77 436.21,247.54 439.19,246.87 C442.17,246.19 445.15,245.88 448.13,246.19 C451.11,246.50 454.09,247.09 457.06,248.72 C460.04,250.36 464.51,254.79 466.00,256.00" fill="none" stroke="url(#waveGrad)" stroke-width="4" opacity="0.95" stroke-linecap="round"/>
</svg>