<svg width="247" height="248" viewBox="0 0 247 248" fill="none" xmlns="http://www.w3.org/2000/svg">
<path fill-rule="evenodd" clip-rule="evenodd" d="M63.5 10.5C64.5 11.1667 65.5 11.8333 66.5 12.5C51.1667 12.5 35.8333 12.5 20.5 12.5C20.5 11.5 20.5 10.5 20.5 9.5C34.8085 10.4116 49.1418 10.7449 63.5 10.5Z" fill="#555555"/>
<path fill-rule="evenodd" clip-rule="evenodd" d="M235.5 31.5C234.833 25.1667 234.167 18.8333 233.5 12.5C222.346 11.5052 211.012 11.1719 199.5 11.5C177.66 11.8307 155.994 11.4973 134.5 10.5C166.736 10.794 198.736 10.4607 230.5 9.5C232.059 10.0736 233.559 10.7402 235 11.5C235.5 18.1583 235.666 24.825 235.5 31.5Z" fill="#555555"/>
<path fill-rule="evenodd" clip-rule="evenodd" d="M63.5 10.5C87.1667 10.5 110.833 10.5 134.5 10.5C155.994 11.4973 177.66 11.8307 199.5 11.5C188.679 12.4946 177.679 12.8279 166.5 12.5C145.167 12.5 123.833 12.5 102.5 12.5C90.5 12.5 78.5 12.5 66.5 12.5C65.5 11.8333 64.5 11.1667 63.5 10.5Z" fill="#555555"/>
<path fill-rule="evenodd" clip-rule="evenodd" d="M20.5 12.5C35.8333 12.5 51.1667 12.5 66.5 12.5C78.5 12.5 90.5 12.5 102.5 12.5C102.833 13.1667 103.167 13.8333 103.5 14.5C92.1667 14.5 80.8333 14.5 69.5 14.5C52.5 14.5 35.5 14.5 18.5 14.5C18.8333 13.5 19.5 12.8333 20.5 12.5Z" fill="#555555"/>
<path fill-rule="evenodd" clip-rule="evenodd" d="M102.5 12.5C123.833 12.5 145.167 12.5 166.5 12.5C166.5 12.8333 166.5 13.1667 166.5 13.5C155.986 13.1724 145.653 13.5058 135.5 14.5C124.833 14.5 114.167 14.5 103.5 14.5C103.167 13.8333 102.833 13.1667 102.5 12.5Z" fill="#555555"/>
<path fill-rule="evenodd" clip-rule="evenodd" d="M135.5 14.5C145.653 13.5058 155.986 13.1724 166.5 13.5C187.836 13.3334 209.169 13.5 230.5 14C229.956 14.7172 229.289 15.2172 228.5 15.5C197.671 14.5018 166.671 14.1685 135.5 14.5Z" fill="#555555"/>
<path fill-rule="evenodd" clip-rule="evenodd" d="M18.5 14.5C35.5 14.5 52.5 14.5 69.5 14.5C69.5 14.8333 69.5 15.1667 69.5 15.5C58.7841 15.7263 48.1174 15.7263 37.5 15.5C32.4927 16.065 27.4927 16.7317 22.5 17.5C23.8569 19.1856 25.1902 20.8523 26.5 22.5C23.2085 20.5419 20.2085 18.2085 17.5 15.5C18.1667 15.5 18.5 15.1667 18.5 14.5Z" fill="#555555"/>
<path fill-rule="evenodd" clip-rule="evenodd" d="M69.5 15.5C69.5 15.1667 69.5 14.8333 69.5 14.5C80.8333 14.5 92.1667 14.5 103.5 14.5C114.167 14.5 124.833 14.5 135.5 14.5C166.671 14.1685 197.671 14.5018 228.5 15.5C218.5 23.8333 208.5 32.1667 198.5 40.5C180.167 40.5 161.833 40.5 143.5 40.5C119.328 40.8309 95.3275 40.4976 71.5 39.5C113.86 39.955 156.194 39.455 198.5 38C207.437 31.363 215.77 24.0296 223.5 16C172.168 15.5 120.834 15.3333 69.5 15.5Z" fill="#555555"/>
<path fill-rule="evenodd" clip-rule="evenodd" d="M199.5 11.5C211.012 11.1719 222.346 11.5052 233.5 12.5C233.5 13.5 233.5 14.5 233.5 15.5C233.167 15.5 232.833 15.5 232.5 15.5C232.167 15.5 231.833 15.5 231.5 15.5C230.167 16.1667 229.167 17.1667 228.5 18.5C221.866 22.8061 215.866 27.8061 210.5 33.5C206.895 35.9265 203.395 38.5932 200 41.5C199.5 48.4921 199.334 55.4921 199.5 62.5C199.167 62.5 198.833 62.5 198.5 62.5C198.821 56.9738 198.488 51.6405 197.5 46.5C197.5 45.1667 197.5 43.8333 197.5 42.5C197.833 41.8333 198.167 41.1667 198.5 40.5C208.5 32.1667 218.5 23.8333 228.5 15.5C229.289 15.2172 229.956 14.7172 230.5 14C209.169 13.5 187.836 13.3334 166.5 13.5C166.5 13.1667 166.5 12.8333 166.5 12.5C177.679 12.8279 188.679 12.4946 199.5 11.5Z" fill="#555555"/>
<path fill-rule="evenodd" clip-rule="evenodd" d="M21.5 21.5C22.5 21.8333 23.1667 22.5 23.5 23.5C22.1667 23.5 21.5 22.8333 21.5 21.5Z" fill="#555555"/>
<path fill-rule="evenodd" clip-rule="evenodd" d="M231.5 15.5C231.832 56.3368 231.499 97.0034 230.5 137.5C230.667 98.4986 230.5 59.4986 230 20.5C229.722 19.5842 229.222 18.9175 228.5 18.5C229.167 17.1667 230.167 16.1667 231.5 15.5Z" fill="#555555"/>
<path fill-rule="evenodd" clip-rule="evenodd" d="M228.5 18.5C223.09 24.2468 217.09 29.2468 210.5 33.5C215.866 27.8061 221.866 22.8061 228.5 18.5Z" fill="#555555"/>
<path fill-rule="evenodd" clip-rule="evenodd" d="M23.5 23.5C28.801 27.4664 33.801 31.7997 38.5 36.5C32.6087 33.2809 27.6087 28.9476 23.5 23.5Z" fill="#555555"/>
<path fill-rule="evenodd" clip-rule="evenodd" d="M26.5 22.5C33.6059 27.7618 40.6059 33.2618 47.5 39C49.1368 39.6012 50.8034 40.1012 52.5 40.5C58.6461 39.8261 64.9795 39.4928 71.5 39.5C95.3275 40.4976 119.328 40.8309 143.5 40.5C126.008 41.4967 108.341 41.8301 90.5 41.5C76.1628 41.6666 61.8295 41.4999 47.5 41C40.0524 35.2865 33.0524 29.1199 26.5 22.5Z" fill="#555555"/>
<path fill-rule="evenodd" clip-rule="evenodd" d="M38.5 36.5C41.4358 38.2553 44.2691 40.2553 47 42.5C47.4935 44.1341 47.6602 45.8008 47.5 47.5C46.8333 61.5 46.1667 75.5 45.5 89.5C45.6666 74.163 45.4999 58.8297 45 43.5C42.6278 41.2968 40.4611 38.9635 38.5 36.5Z" fill="#555555"/>
<path fill-rule="evenodd" clip-rule="evenodd" d="M143.5 40.5C161.833 40.5 180.167 40.5 198.5 40.5C198.167 41.1667 197.833 41.8333 197.5 42.5C165.488 42.2443 133.488 42.5777 101.5 43.5C84.1667 43.5 66.8333 43.5 49.5 43.5C63.1667 42.8333 76.8333 42.1667 90.5 41.5C108.341 41.8301 126.008 41.4967 143.5 40.5Z" fill="#555555"/>
<path fill-rule="evenodd" clip-rule="evenodd" d="M197.5 42.5C197.5 43.8333 197.5 45.1667 197.5 46.5C197.5 75.1667 197.5 103.833 197.5 132.5C197.167 132.5 196.833 132.5 196.5 132.5C196.829 103.26 196.495 74.0929 195.5 45C194.391 44.3623 193.225 43.8623 192 43.5C161.902 44.3157 131.736 44.6491 101.5 44.5C101.5 44.1667 101.5 43.8333 101.5 43.5C133.488 42.5777 165.488 42.2443 197.5 42.5Z" fill="#555555"/>
<path fill-rule="evenodd" clip-rule="evenodd" d="M49.5 43.5C66.8333 43.5 84.1667 43.5 101.5 43.5C101.5 43.8333 101.5 44.1667 101.5 44.5C84.4708 44.9686 67.4708 44.9686 50.5 44.5C50.5 48.5 50.5 52.5 50.5 56.5C49.5151 52.3656 49.1818 48.0323 49.5 43.5Z" fill="#555555"/>
<path fill-rule="evenodd" clip-rule="evenodd" d="M210.5 33.5C208.166 36.6662 205.333 39.3329 202 41.5C201.5 63.4975 201.333 85.4975 201.5 107.5C200.833 96.1667 200.167 84.8333 199.5 73.5C199.5 69.8333 199.5 66.1667 199.5 62.5C199.334 55.4921 199.5 48.4921 200 41.5C203.395 38.5932 206.895 35.9265 210.5 33.5Z" fill="#555555"/>
<path fill-rule="evenodd" clip-rule="evenodd" d="M49.5 43.5C49.1818 48.0323 49.5151 52.3656 50.5 56.5C50.5 57.8333 50.5 59.1667 50.5 60.5C49.5021 86.9948 49.1688 113.661 49.5 140.5C49.1667 140.5 48.8333 140.5 48.5 140.5C48.1684 107.996 48.5018 75.6624 49.5 43.5Z" fill="#555555"/>
<path fill-rule="evenodd" clip-rule="evenodd" d="M233.5 12.5C234.167 18.8333 234.833 25.1667 235.5 31.5C235.5 58.8333 235.5 86.1667 235.5 113.5C234.505 124.654 234.172 135.988 234.5 147.5C233.501 103.67 233.168 59.6698 233.5 15.5C233.5 14.5 233.5 13.5 233.5 12.5Z" fill="#555555"/>
<path fill-rule="evenodd" clip-rule="evenodd" d="M17.5 15.5C20.2085 18.2085 23.2085 20.5419 26.5 22.5C33.0524 29.1199 40.0524 35.2865 47.5 41C61.8295 41.4999 76.1628 41.6666 90.5 41.5C76.8333 42.1667 63.1667 42.8333 49.5 43.5C48.5018 75.6624 48.1684 107.996 48.5 140.5C48.5 141.167 48.1667 141.5 47.5 141.5C47.5 131.5 47.5 121.5 47.5 111.5C47.5 90.1667 47.5 68.8333 47.5 47.5C47.6602 45.8008 47.4935 44.1341 47 42.5C44.2691 40.2553 41.4358 38.2553 38.5 36.5C33.801 31.7997 28.801 27.4664 23.5 23.5C23.1667 22.5 22.5 21.8333 21.5 21.5C20.5084 21.6716 19.8417 21.3382 19.5 20.5C18.5 19.1667 17.5 17.8333 16.5 16.5C16.5 15.8333 16.8333 15.5 17.5 15.5Z" fill="#555555"/>
<path fill-rule="evenodd" clip-rule="evenodd" d="M15.5 16.5C15.8333 16.5 16.1667 16.5 16.5 16.5C17.5 17.8333 18.5 19.1667 19.5 20.5C18.603 21.5981 17.7697 21.5981 17 20.5C17.698 56.591 17.5314 92.591 16.5 128.5C16.1667 128.5 15.8333 128.5 15.5 128.5C15.5 91.1667 15.5 53.8333 15.5 16.5Z" fill="#555555"/>
<path fill-rule="evenodd" clip-rule="evenodd" d="M47.5 47.5C47.5 68.8333 47.5 90.1667 47.5 111.5C46.8333 104.833 46.1667 98.1667 45.5 91.5C45.5 90.8333 45.5 90.1667 45.5 89.5C46.1667 75.5 46.8333 61.5 47.5 47.5Z" fill="#555555"/>
<path fill-rule="evenodd" clip-rule="evenodd" d="M198.5 62.5C198.833 62.5 199.167 62.5 199.5 62.5C199.5 66.1667 199.5 69.8333 199.5 73.5C199.169 94.6733 199.503 115.673 200.5 136.5C201.833 137.167 203.167 137.833 204.5 138.5C204.5 138.833 204.5 139.167 204.5 139.5C204.167 139.5 203.833 139.5 203.5 139.5C202.432 138.566 201.099 138.232 199.5 138.5C199.826 147.017 199.493 155.35 198.5 163.5C198.5 162.833 198.5 162.167 198.5 161.5C198.5 160.833 198.5 160.167 198.5 159.5C198.666 152.492 198.5 145.492 198 138.5C197.329 137.748 196.496 137.414 195.5 137.5C195.047 136.542 194.381 135.708 193.5 135C193.728 134.601 194.062 134.435 194.5 134.5C194.833 134.5 195.167 134.5 195.5 134.5C196.209 135.404 197.209 135.737 198.5 135.5C198.5 111.167 198.5 86.8333 198.5 62.5Z" fill="#555555"/>
<path fill-rule="evenodd" clip-rule="evenodd" d="M13.5 16.5C13.5 66.5 13.5 116.5 13.5 166.5C12.8333 187.167 12.1667 207.833 11.5 228.5C11.5067 157.793 11.5067 87.2925 11.5 17C12.0944 16.5357 12.7611 16.369 13.5 16.5Z" fill="#555555"/>
<path fill-rule="evenodd" clip-rule="evenodd" d="M197.5 46.5C198.488 51.6405 198.821 56.9738 198.5 62.5C198.5 86.8333 198.5 111.167 198.5 135.5C197.209 135.737 196.209 135.404 195.5 134.5C196.833 134.5 197.5 133.833 197.5 132.5C197.5 103.833 197.5 75.1667 197.5 46.5Z" fill="#555555"/>
<path fill-rule="evenodd" clip-rule="evenodd" d="M169.5 104.5C167.938 104.267 166.605 103.6 165.5 102.5C159.059 98.2083 152.059 97.375 144.5 100C143.429 100.852 142.429 101.685 141.5 102.5C134.814 106.519 131.147 112.519 130.5 120.5C126.108 118.357 123.108 115.024 121.5 110.5C124.002 112.17 126.002 114.336 127.5 117C128.448 117.483 129.448 117.649 130.5 117.5C133.927 101.269 143.927 94.7686 160.5 98C164.276 99.2094 167.276 101.376 169.5 104.5Z" fill="#555555"/>
<path fill-rule="evenodd" clip-rule="evenodd" d="M165.5 102.5C164.791 103.404 163.791 103.737 162.5 103.5C161.942 102.21 160.942 101.377 159.5 101C153.461 99.8044 147.795 100.638 142.5 103.5C142.5 102.833 142.167 102.5 141.5 102.5C142.429 101.685 143.429 100.852 144.5 100C152.059 97.375 159.059 98.2083 165.5 102.5Z" fill="#555555"/>
<path fill-rule="evenodd" clip-rule="evenodd" d="M162.5 103.5C158.318 101.769 153.984 101.269 149.5 102C145.996 103.254 142.663 104.754 139.5 106.5C140.167 105.167 141.167 104.167 142.5 103.5C147.795 100.638 153.461 99.8044 159.5 101C160.942 101.377 161.942 102.21 162.5 103.5Z" fill="#555555"/>
<path fill-rule="evenodd" clip-rule="evenodd" d="M165.5 102.5C166.605 103.6 167.938 104.267 169.5 104.5C171.587 105.585 172.92 107.251 173.5 109.5C171.871 108.375 170.371 107.041 169 105.5C168.536 106.094 168.369 106.761 168.5 107.5C166.205 106.525 164.205 105.192 162.5 103.5C163.791 103.737 164.791 103.404 165.5 102.5Z" fill="#555555"/>
<path fill-rule="evenodd" clip-rule="evenodd" d="M116.5 109.5C120.525 112.558 123.858 116.225 126.5 120.5C125.761 120.631 125.094 120.464 124.5 120C122.353 116.885 119.853 114.052 117 111.5C116.722 112.416 116.222 113.082 115.5 113.5C115.433 112.041 115.766 110.708 116.5 109.5Z" fill="#555555"/>
<path fill-rule="evenodd" clip-rule="evenodd" d="M117.5 107.5C117.167 108.167 116.833 108.833 116.5 109.5C115.766 110.708 115.433 112.041 115.5 113.5C114.102 114.777 113.436 116.443 113.5 118.5C113.467 121.102 114.467 123.102 116.5 124.5C116.662 126.527 116.495 128.527 116 130.5C113.889 132.102 112.389 134.102 111.5 136.5C111.453 138.038 112.12 139.038 113.5 139.5C113.738 141.404 114.738 142.738 116.5 143.5C117.419 146.089 119.086 148.089 121.5 149.5C121.427 151.027 122.094 152.027 123.5 152.5C123.5 153.5 123.5 154.5 123.5 155.5C121.784 155.371 120.117 155.038 118.5 154.5C117.415 152.413 115.749 151.08 113.5 150.5C111.596 150.262 110.262 149.262 109.5 147.5C110.798 148.116 111.798 148.116 112.5 147.5C114.806 149.035 117.139 150.202 119.5 151C115.291 146.742 111.958 141.908 109.5 136.5C111.32 133.517 113.32 130.684 115.5 128C111.236 123.089 110.569 117.756 113.5 112C113.333 111.5 113.167 111 113 110.5C109.472 113.169 106.305 116.169 103.5 119.5C103.5 120.167 103.167 120.5 102.5 120.5C100.251 121.08 98.5846 122.413 97.5 124.5C96.8333 125.833 95.8333 126.833 94.5 127.5C92.2512 128.08 90.5846 129.413 89.5 131.5C89.5 132.167 89.1667 132.5 88.5 132.5C87.391 132.557 86.391 132.89 85.5 133.5C84.5 132.833 83.5 132.167 82.5 131.5C85.5158 131.159 88.1825 129.993 90.5 128C98.2038 120.627 106.204 113.627 114.5 107C115.749 106.26 116.749 106.427 117.5 107.5Z" fill="#555555"/>
<path fill-rule="evenodd" clip-rule="evenodd" d="M173.5 109.5C175.498 114.954 177.498 120.287 179.5 125.5C178.2 126.827 176.867 128.16 175.5 129.5C175.957 130.298 176.624 130.631 177.5 130.5C176.089 132.914 174.089 134.581 171.5 135.5C172.29 134.206 173.29 133.039 174.5 132C174.043 131.586 173.709 131.086 173.5 130.5C174.884 127.666 175.551 124.666 175.5 121.5C175.038 117.454 174.372 113.454 173.5 109.5Z" fill="#555555"/>
<path fill-rule="evenodd" clip-rule="evenodd" d="M199.5 73.5C200.167 84.8333 200.833 96.1667 201.5 107.5C201.5 112.833 201.5 118.167 201.5 123.5C200.515 127.634 200.182 131.968 200.5 136.5C199.503 115.673 199.169 94.6733 199.5 73.5Z" fill="#555555"/>
<path fill-rule="evenodd" clip-rule="evenodd" d="M115.5 113.5C115.423 117.215 115.756 120.881 116.5 124.5C114.467 123.102 113.467 121.102 113.5 118.5C113.436 116.443 114.102 114.777 115.5 113.5Z" fill="#555555"/>
<path fill-rule="evenodd" clip-rule="evenodd" d="M141.5 102.5C142.167 102.5 142.5 102.833 142.5 103.5C141.167 104.167 140.167 105.167 139.5 106.5C134.572 110.705 132.738 116.038 134 122.5C134.995 123.066 135.828 123.733 136.5 124.5C136.5 125.167 136.5 125.833 136.5 126.5C133.802 123.483 130.469 121.483 126.5 120.5C123.858 116.225 120.525 112.558 116.5 109.5C116.833 108.833 117.167 108.167 117.5 107.5C118.833 108.5 120.167 109.5 121.5 110.5C123.108 115.024 126.108 118.357 130.5 120.5C131.147 112.519 134.814 106.519 141.5 102.5Z" fill="#555555"/>
<path fill-rule="evenodd" clip-rule="evenodd" d="M102.5 120.5C101.415 122.587 99.7488 123.92 97.5 124.5C98.5846 122.413 100.251 121.08 102.5 120.5Z" fill="#555555"/>
<path fill-rule="evenodd" clip-rule="evenodd" d="M126.5 120.5C130.469 121.483 133.802 123.483 136.5 126.5C137.11 127.391 137.443 128.391 137.5 129.5C134.099 126.092 130.432 123.092 126.5 120.5Z" fill="#555555"/>
<path fill-rule="evenodd" clip-rule="evenodd" d="M50.5 60.5C50.172 86.4077 50.5053 112.241 51.5 138C54.1787 137.782 56.8454 137.115 59.5 136C64 132.167 68.5 128.333 73 124.5C76.3435 126.516 79.6768 128.516 83 130.5C84.2247 130.138 85.3914 129.638 86.5 129C95.5 121.333 104.5 113.667 113.5 106C117.745 104.752 120.412 106.252 121.5 110.5C120.167 109.5 118.833 108.5 117.5 107.5C116.749 106.427 115.749 106.26 114.5 107C106.204 113.627 98.2038 120.627 90.5 128C88.1825 129.993 85.5158 131.159 82.5 131.5C79.2923 129.979 76.1257 128.312 73 126.5C68.8447 129.987 64.678 133.487 60.5 137C56.9793 138.674 53.3127 139.84 49.5 140.5C49.1688 113.661 49.5021 86.9948 50.5 60.5Z" fill="#555555"/>
<path fill-rule="evenodd" clip-rule="evenodd" d="M45.5 91.5C46.1667 98.1667 46.8333 104.833 47.5 111.5C47.5 121.5 47.5 131.5 47.5 141.5C45.5 142.5 43.5 143.5 41.5 144.5C41.5 144.167 41.5 143.833 41.5 143.5C42.3149 142.163 43.4815 141.163 45 140.5C45.4999 124.17 45.6666 107.837 45.5 91.5Z" fill="#555555"/>
<path fill-rule="evenodd" clip-rule="evenodd" d="M139.5 106.5C137.306 110.229 135.639 114.229 134.5 118.5C139.47 128.296 147.303 134.63 158 137.5C161.442 135.862 164.942 134.362 168.5 133C171.013 129.64 172.347 125.807 172.5 121.5C172.045 116.546 170.712 111.88 168.5 107.5C170.562 109.41 172.062 111.743 173 114.5C173.692 119.891 173.359 125.225 172 130.5C171.535 131.931 170.701 133.097 169.5 134C165.79 135.515 162.456 137.515 159.5 140C153.645 137.073 147.645 134.073 141.5 131C139.97 128.648 138.303 126.481 136.5 124.5C135.828 123.733 134.995 123.066 134 122.5C132.738 116.038 134.572 110.705 139.5 106.5Z" fill="#555555"/>
<path fill-rule="evenodd" clip-rule="evenodd" d="M94.5 127.5C93.4154 129.587 91.7488 130.92 89.5 131.5C90.5846 129.413 92.2512 128.08 94.5 127.5Z" fill="#555555"/>
<path fill-rule="evenodd" clip-rule="evenodd" d="M188.5 132.5C186.883 131.962 185.216 131.629 183.5 131.5C183.423 135.215 183.756 138.881 184.5 142.5C183.778 142.082 183.278 141.416 183 140.5C182.501 136.514 182.334 132.514 182.5 128.5C185.036 129.037 187.036 130.37 188.5 132.5Z" fill="#555555"/>
<path fill-rule="evenodd" clip-rule="evenodd" d="M179.5 125.5C181.288 124.378 183.288 124.211 185.5 125C188.463 126.961 191.129 129.294 193.5 132C194.448 132.483 195.448 132.649 196.5 132.5C196.833 132.5 197.167 132.5 197.5 132.5C197.5 133.833 196.833 134.5 195.5 134.5C195.167 134.5 194.833 134.5 194.5 134.5C193.71 133.599 192.71 132.932 191.5 132.5C188.399 128.617 184.399 126.283 179.5 125.5Z" fill="#555555"/>
<path fill-rule="evenodd" clip-rule="evenodd" d="M188.5 132.5C189.798 133.116 190.798 133.116 191.5 132.5C192.71 132.932 193.71 133.599 194.5 134.5C194.062 134.435 193.728 134.601 193.5 135C194.381 135.708 195.047 136.542 195.5 137.5C192.63 136.567 190.296 134.9 188.5 132.5Z" fill="#555555"/>
<path fill-rule="evenodd" clip-rule="evenodd" d="M88.5 132.5C87.8783 133.627 87.045 134.627 86 135.5C85.9428 138.851 85.1094 141.851 83.5 144.5C83.8084 140.64 84.4751 136.974 85.5 133.5C86.391 132.89 87.391 132.557 88.5 132.5Z" fill="#555555"/>
<path fill-rule="evenodd" clip-rule="evenodd" d="M82.5 131.5C83.5 132.167 84.5 132.833 85.5 133.5C84.4751 136.974 83.8084 140.64 83.5 144.5C82.8333 144.5 82.5 144.833 82.5 145.5C81.6618 145.158 81.3284 144.492 81.5 143.5C84.173 136.779 82.173 132.445 75.5 130.5C74.6857 128.727 73.3524 128.227 71.5 129C68.6286 131.703 65.9619 134.536 63.5 137.5C59.0383 139.73 54.3716 141.397 49.5 142.5C49.5 141.833 49.5 141.167 49.5 140.5C53.3127 139.84 56.9793 138.674 60.5 137C64.678 133.487 68.8447 129.987 73 126.5C76.1257 128.312 79.2923 129.979 82.5 131.5Z" fill="#555555"/>
<path fill-rule="evenodd" clip-rule="evenodd" d="M75.5 130.5C74.1266 130.343 72.7932 130.51 71.5 131C69.2295 133.782 66.5628 135.949 63.5 137.5C65.9619 134.536 68.6286 131.703 71.5 129C73.3524 128.227 74.6857 128.727 75.5 130.5Z" fill="#555555"/>
<path fill-rule="evenodd" clip-rule="evenodd" d="M116.5 124.5C119.114 128.378 118.281 131.711 114 134.5C113.506 136.134 113.34 137.801 113.5 139.5C112.12 139.038 111.453 138.038 111.5 136.5C112.389 134.102 113.889 132.102 116 130.5C116.495 128.527 116.662 126.527 116.5 124.5Z" fill="#555555"/>
<path fill-rule="evenodd" clip-rule="evenodd" d="M173.5 109.5C174.372 113.454 175.038 117.454 175.5 121.5C175.551 124.666 174.884 127.666 173.5 130.5C173.709 131.086 174.043 131.586 174.5 132C173.29 133.039 172.29 134.206 171.5 135.5C171.158 136.338 170.492 136.672 169.5 136.5C166.738 137.38 164.071 138.546 161.5 140C160.663 141.011 160.33 142.178 160.5 143.5C159.791 144.404 158.791 144.737 157.5 144.5C157.573 142.973 156.906 141.973 155.5 141.5C154.833 141.5 154.5 141.167 154.5 140.5C152.421 138.127 149.754 136.794 146.5 136.5C142.637 135.306 139.637 132.973 137.5 129.5C137.443 128.391 137.11 127.391 136.5 126.5C136.5 125.833 136.5 125.167 136.5 124.5C138.303 126.481 139.97 128.648 141.5 131C147.645 134.073 153.645 137.073 159.5 140C162.456 137.515 165.79 135.515 169.5 134C170.701 133.097 171.535 131.931 172 130.5C173.359 125.225 173.692 119.891 173 114.5C172.062 111.743 170.562 109.41 168.5 107.5C168.369 106.761 168.536 106.094 169 105.5C170.371 107.041 171.871 108.375 173.5 109.5Z" fill="#555555"/>
<path fill-rule="evenodd" clip-rule="evenodd" d="M112.5 147.5C109.295 145.304 106.128 142.971 103 140.5C98.8447 143.987 94.678 147.487 90.5 151C87.4388 153.035 84.1055 154.201 80.5 154.5C81.01 151.461 81.6766 148.461 82.5 145.5C82.5 144.833 82.8333 144.5 83.5 144.5C83.4249 147.206 83.0916 149.873 82.5 152.5C85.0163 152.245 87.3496 151.411 89.5 150C93.8258 146.674 97.8258 143.007 101.5 139C104.308 138.08 106.475 138.913 108 141.5C108 139.5 108 137.5 108 135.5C109.848 132.989 111.681 130.489 113.5 128C111.171 124.51 110.171 120.677 110.5 116.5C107.962 117.043 105.628 118.043 103.5 119.5C106.305 116.169 109.472 113.169 113 110.5C113.167 111 113.333 111.5 113.5 112C110.569 117.756 111.236 123.089 115.5 128C113.32 130.684 111.32 133.517 109.5 136.5C111.958 141.908 115.291 146.742 119.5 151C117.139 150.202 114.806 149.035 112.5 147.5Z" fill="#555555"/>
<path fill-rule="evenodd" clip-rule="evenodd" d="M146.5 136.5C149.754 136.794 152.421 138.127 154.5 140.5C151.515 139.674 148.849 138.341 146.5 136.5Z" fill="#555555"/>
<path fill-rule="evenodd" clip-rule="evenodd" d="M113.5 139.5C115.262 140.262 116.262 141.596 116.5 143.5C114.738 142.738 113.738 141.404 113.5 139.5Z" fill="#555555"/>
<path fill-rule="evenodd" clip-rule="evenodd" d="M169.5 136.5C167.492 138.268 165.326 139.934 163 141.5C162.7 143.066 163.2 144.399 164.5 145.5C162.938 145.267 161.605 144.6 160.5 143.5C160.33 142.178 160.663 141.011 161.5 140C164.071 138.546 166.738 137.38 169.5 136.5Z" fill="#555555"/>
<path fill-rule="evenodd" clip-rule="evenodd" d="M179.5 125.5C184.399 126.283 188.399 128.617 191.5 132.5C190.798 133.116 189.798 133.116 188.5 132.5C187.036 130.37 185.036 129.037 182.5 128.5C182.334 132.514 182.501 136.514 183 140.5C183.278 141.416 183.778 142.082 184.5 142.5C185.419 145.089 187.086 147.089 189.5 148.5C190.116 149.798 190.116 150.798 189.5 151.5C187.395 148.973 185.061 146.64 182.5 144.5C181.062 139.301 180.062 133.968 179.5 128.5C178.478 128.855 177.811 129.522 177.5 130.5C176.624 130.631 175.957 130.298 175.5 129.5C176.867 128.16 178.2 126.827 179.5 125.5Z" fill="#555555"/>
<path fill-rule="evenodd" clip-rule="evenodd" d="M204.5 138.5C208.812 140.289 212.479 143.123 215.5 147C218.167 147.333 220.833 147.667 223.5 148C226.553 149.527 229.553 151.027 232.5 152.5C232.5 153.5 232.5 154.5 232.5 155.5C231.078 154.075 229.411 153.075 227.5 152.5C223.69 149.839 219.356 148.839 214.5 149.5C213.167 147.5 211.5 145.833 209.5 144.5C208.128 143.488 206.795 142.488 205.5 141.5C205.167 140.833 204.833 140.167 204.5 139.5C204.5 139.167 204.5 138.833 204.5 138.5Z" fill="#555555"/>
<path fill-rule="evenodd" clip-rule="evenodd" d="M75.5 130.5C82.173 132.445 84.173 136.779 81.5 143.5C80.2097 146.642 79.2097 149.975 78.5 153.5C77.5655 154.568 77.2322 155.901 77.5 157.5C76.8614 156.903 76.528 156.07 76.5 155C77.7799 151.186 78.6132 147.353 79 143.5C78.3292 144.252 77.4959 144.586 76.5 144.5C78.1088 143.102 78.9421 141.435 79 139.5C73.197 144.304 67.3637 148.97 61.5 153.5C61.5 153.167 61.5 152.833 61.5 152.5C67.4782 147.364 73.6448 142.364 80 137.5C80.6667 136.5 80.6667 135.5 80 134.5C78.3333 133.267 76.8333 131.933 75.5 130.5Z" fill="#555555"/>
<path fill-rule="evenodd" clip-rule="evenodd" d="M182.5 144.5C181.21 143.942 180.377 142.942 180 141.5C178.683 138.786 178.516 136.119 179.5 133.5C179.36 131.97 178.693 130.97 177.5 130.5C177.811 129.522 178.478 128.855 179.5 128.5C180.062 133.968 181.062 139.301 182.5 144.5Z" fill="#555555"/>
<path fill-rule="evenodd" clip-rule="evenodd" d="M184.5 142.5C186.914 143.911 188.581 145.911 189.5 148.5C187.086 147.089 185.419 145.089 184.5 142.5Z" fill="#555555"/>
<path fill-rule="evenodd" clip-rule="evenodd" d="M76.5 144.5C75.4154 146.587 73.7488 147.92 71.5 148.5C72.5846 146.413 74.2512 145.08 76.5 144.5Z" fill="#555555"/>
<path fill-rule="evenodd" clip-rule="evenodd" d="M106.5 145.5C104.863 144.782 103.197 144.616 101.5 145C99.5588 147.454 97.2254 149.287 94.5 150.5C96.9509 146.514 100.284 144.014 104.5 143C105.381 143.708 106.047 144.542 106.5 145.5Z" fill="#555555"/>
<path fill-rule="evenodd" clip-rule="evenodd" d="M155.5 141.5C156.906 141.973 157.573 142.973 157.5 144.5C156.115 145.574 154.949 146.907 154 148.5C153.517 147.552 153.351 146.552 153.5 145.5C155.104 144.713 155.771 143.38 155.5 141.5Z" fill="#555555"/>
<path fill-rule="evenodd" clip-rule="evenodd" d="M209.5 144.5C211.5 145.833 213.167 147.5 214.5 149.5C211.833 148.833 210.167 147.167 209.5 144.5Z" fill="#555555"/>
<path fill-rule="evenodd" clip-rule="evenodd" d="M63.5 137.5C60.2067 140.398 56.3733 142.398 52 143.5C50.971 149.123 50.471 154.79 50.5 160.5C51.552 160.649 52.552 160.483 53.5 160C55.3812 156.617 58.0478 154.117 61.5 152.5C61.5 152.833 61.5 153.167 61.5 153.5C58.1684 157.664 54.335 161.331 50 164.5C49.5172 163.552 49.3505 162.552 49.5 161.5C49.5 155.167 49.5 148.833 49.5 142.5C54.3716 141.397 59.0383 139.73 63.5 137.5Z" fill="#555555"/>
<path fill-rule="evenodd" clip-rule="evenodd" d="M116.5 143.5C118.914 144.911 120.581 146.911 121.5 149.5C119.086 148.089 117.419 146.089 116.5 143.5Z" fill="#555555"/>
<path fill-rule="evenodd" clip-rule="evenodd" d="M203.5 139.5C203.833 139.5 204.167 139.5 204.5 139.5C204.833 140.167 205.167 140.833 205.5 141.5C204.153 140.829 202.986 140.829 202 141.5C201.19 162.543 201.356 183.543 202.5 204.5C201.508 204.672 200.842 204.338 200.5 203.5C200.5 182.167 200.5 160.833 200.5 139.5C201.5 139.5 202.5 139.5 203.5 139.5Z" fill="#555555"/>
<path fill-rule="evenodd" clip-rule="evenodd" d="M15.5 128.5C15.8333 128.5 16.1667 128.5 16.5 128.5C17.187 138.253 17.5204 147.753 17.5 157C20.7025 156.914 23.7025 155.914 26.5 154C31.3978 150.255 36.3978 146.755 41.5 143.5C41.5 143.833 41.5 144.167 41.5 144.5C34.6707 150.345 27.3374 155.345 19.5 159.5C18.4168 159.539 17.4168 159.873 16.5 160.5C15.5013 149.854 15.168 139.187 15.5 128.5Z" fill="#555555"/>
<path fill-rule="evenodd" clip-rule="evenodd" d="M113.5 150.5C115.749 151.08 117.415 152.413 118.5 154.5C116.251 153.92 114.585 152.587 113.5 150.5Z" fill="#555555"/>
<path fill-rule="evenodd" clip-rule="evenodd" d="M121.5 149.5C122.906 149.973 123.573 150.973 123.5 152.5C122.094 152.027 121.427 151.027 121.5 149.5Z" fill="#555555"/>
<path fill-rule="evenodd" clip-rule="evenodd" d="M182.5 144.5C185.061 146.64 187.395 148.973 189.5 151.5C190.441 153.466 191.441 155.466 192.5 157.5C191.833 157.833 191.167 158.167 190.5 158.5C186.925 156.878 183.259 155.544 179.5 154.5C178.71 153.599 177.71 152.932 176.5 152.5C172.534 150.842 168.534 149.175 164.5 147.5C164.5 146.833 164.5 146.167 164.5 145.5C171.595 149.046 178.928 152.046 186.5 154.5C187.167 154.167 187.833 153.833 188.5 153.5C186.231 150.615 184.231 147.615 182.5 144.5Z" fill="#555555"/>
<path fill-rule="evenodd" clip-rule="evenodd" d="M214.5 149.5C219.356 148.839 223.69 149.839 227.5 152.5C223.528 151.892 219.528 151.392 215.5 151C214.944 150.617 214.611 150.117 214.5 149.5Z" fill="#555555"/>
<path fill-rule="evenodd" clip-rule="evenodd" d="M160.5 143.5C161.605 144.6 162.938 145.267 164.5 145.5C164.5 146.167 164.5 146.833 164.5 147.5C165.167 148.5 165.833 149.5 166.5 150.5C164.139 149.565 161.972 148.232 160 146.5C156.143 150.389 152.643 154.556 149.5 159C148.251 159.74 147.251 159.573 146.5 158.5C147.172 155.657 148.505 153.157 150.5 151C147.879 151.427 145.879 152.927 144.5 155.5C142.5 158.167 140.167 160.5 137.5 162.5C137.511 160.983 138.177 159.816 139.5 159C139.272 158.601 138.938 158.435 138.5 158.5C140.5 156.167 142.5 153.833 144.5 151.5C146.695 147.61 149.695 145.61 153.5 145.5C153.351 146.552 153.517 147.552 154 148.5C154.949 146.907 156.115 145.574 157.5 144.5C158.791 144.737 159.791 144.404 160.5 143.5Z" fill="#555555"/>
<path fill-rule="evenodd" clip-rule="evenodd" d="M166.5 150.5C168.674 150.75 170.341 151.75 171.5 153.5C169.326 153.25 167.659 152.25 166.5 150.5Z" fill="#555555"/>
<path fill-rule="evenodd" clip-rule="evenodd" d="M164.5 147.5C168.534 149.175 172.534 150.842 176.5 152.5C176.631 153.239 176.464 153.906 176 154.5C174.644 153.62 173.144 153.286 171.5 153.5C170.341 151.75 168.674 150.75 166.5 150.5C165.833 149.5 165.167 148.5 164.5 147.5Z" fill="#555555"/>
<path fill-rule="evenodd" clip-rule="evenodd" d="M231.5 15.5C231.833 15.5 232.167 15.5 232.5 15.5C232.5 61.1667 232.5 106.833 232.5 152.5C229.553 151.027 226.553 149.527 223.5 148C220.833 147.667 218.167 147.333 215.5 147C212.479 143.123 208.812 140.289 204.5 138.5C203.167 137.833 201.833 137.167 200.5 136.5C200.182 131.968 200.515 127.634 201.5 123.5C201.334 127.514 201.501 131.514 202 135.5C204.175 136.255 206.341 137.088 208.5 138C211.203 141.038 214.203 143.705 217.5 146C222.171 146.272 226.504 147.272 230.5 149C230.642 145.379 230.642 141.545 230.5 137.5C231.499 97.0034 231.832 56.3368 231.5 15.5Z" fill="#555555"/>
<path fill-rule="evenodd" clip-rule="evenodd" d="M69.5 150.5C68.0892 152.914 66.0892 154.581 63.5 155.5C64.9108 153.086 66.9108 151.419 69.5 150.5Z" fill="#555555"/>
<path fill-rule="evenodd" clip-rule="evenodd" d="M93.5 151.5C93.0269 152.906 92.0269 153.573 90.5 153.5C90.9731 152.094 91.9731 151.427 93.5 151.5Z" fill="#555555"/>
<path fill-rule="evenodd" clip-rule="evenodd" d="M48.5 140.5C48.8333 140.5 49.1667 140.5 49.5 140.5C49.5 141.167 49.5 141.833 49.5 142.5C49.5 148.833 49.5 155.167 49.5 161.5C48.2348 163.357 48.5682 165.024 50.5 166.5C49.9569 166.56 49.6236 166.893 49.5 167.5C50.325 168.386 51.325 168.719 52.5 168.5C51.5 169.167 50.5 169.833 49.5 170.5C49.5 171.167 49.5 171.833 49.5 172.5C48.8333 172.833 48.1667 173.167 47.5 173.5C47.5 172.5 47.5 171.5 47.5 170.5C44.284 170.345 41.6174 171.345 39.5 173.5C37.4086 173.318 35.4086 173.652 33.5 174.5C32.4063 173.132 32.7397 171.965 34.5 171C38.5994 168.91 42.9328 167.744 47.5 167.5C47.831 159.472 47.4977 151.472 46.5 143.5C45.1451 144.188 44.1451 145.188 43.5 146.5C40.8021 146.845 38.8021 148.178 37.5 150.5C35.5956 150.738 34.2623 151.738 33.5 153.5C29.5275 155.822 25.5275 158.155 21.5 160.5C21.1583 159.662 20.4916 159.328 19.5 159.5C27.3374 155.345 34.6707 150.345 41.5 144.5C43.5 143.5 45.5 142.5 47.5 141.5C48.1667 141.5 48.5 141.167 48.5 140.5Z" fill="#555555"/>
<path fill-rule="evenodd" clip-rule="evenodd" d="M37.5 150.5C36.7377 152.262 35.4044 153.262 33.5 153.5C34.2623 151.738 35.5956 150.738 37.5 150.5Z" fill="#555555"/>
<path fill-rule="evenodd" clip-rule="evenodd" d="M43.5 146.5C41.8525 148.326 39.8525 149.66 37.5 150.5C38.8021 148.178 40.8021 146.845 43.5 146.5Z" fill="#555555"/>
<path fill-rule="evenodd" clip-rule="evenodd" d="M112.5 147.5C111.798 148.116 110.798 148.116 109.5 147.5C109.027 146.094 108.027 145.427 106.5 145.5C106.047 144.542 105.381 143.708 104.5 143C100.284 144.014 96.9509 146.514 94.5 150.5C94.5 151.167 94.1667 151.5 93.5 151.5C91.9731 151.427 90.9731 152.094 90.5 153.5C88.1815 153.992 86.1815 154.992 84.5 156.5C82.5 156.5 80.5 156.5 78.5 156.5C78.5 155.5 78.5 154.5 78.5 153.5C79.2097 149.975 80.2097 146.642 81.5 143.5C81.3284 144.492 81.6618 145.158 82.5 145.5C81.6766 148.461 81.01 151.461 80.5 154.5C84.1055 154.201 87.4388 153.035 90.5 151C94.678 147.487 98.8447 143.987 103 140.5C106.128 142.971 109.295 145.304 112.5 147.5Z" fill="#555555"/>
<path fill-rule="evenodd" clip-rule="evenodd" d="M106.5 145.5C108.027 145.427 109.027 146.094 109.5 147.5C107.973 147.573 106.973 146.906 106.5 145.5Z" fill="#555555"/>
<path fill-rule="evenodd" clip-rule="evenodd" d="M146.5 158.5C145.833 157.5 145.167 156.5 144.5 155.5C145.879 152.927 147.879 151.427 150.5 151C148.505 153.157 147.172 155.657 146.5 158.5Z" fill="#555555"/>
<path fill-rule="evenodd" clip-rule="evenodd" d="M176.5 152.5C177.71 152.932 178.71 153.599 179.5 154.5C179.062 154.435 178.728 154.601 178.5 155C180.324 155.66 181.657 156.827 182.5 158.5C178.646 157.07 174.979 155.403 171.5 153.5C173.144 153.286 174.644 153.62 176 154.5C176.464 153.906 176.631 153.239 176.5 152.5Z" fill="#555555"/>
<path fill-rule="evenodd" clip-rule="evenodd" d="M90.5 153.5C89.089 155.539 87.089 156.539 84.5 156.5C86.1815 154.992 88.1815 153.992 90.5 153.5Z" fill="#555555"/>
<path fill-rule="evenodd" clip-rule="evenodd" d="M33.5 153.5C29.6958 158.455 24.6958 161.622 18.5 163C17.8742 163.75 17.3742 164.584 17 165.5C16.5 186.164 16.3334 206.831 16.5 227.5C20.4724 226.051 23.8057 223.551 26.5 220C29.8777 216.985 33.5444 214.485 37.5 212.5C32.8333 216.833 28.1667 221.167 23.5 225.5C21.3428 227.412 19.0094 229.079 16.5 230.5C15.5025 208.006 15.1692 185.339 15.5 162.5C17.3024 161.542 19.3024 160.875 21.5 160.5C25.5275 158.155 29.5275 155.822 33.5 153.5Z" fill="#555555"/>
<path fill-rule="evenodd" clip-rule="evenodd" d="M39.5 173.5C37.1488 175.203 34.4822 175.703 31.5 175C30.5494 174.282 30.3828 173.449 31 172.5C34.9666 168.464 39.8 166.464 45.5 166.5C45.421 162.798 45.7543 159.132 46.5 155.5C46.4431 151.957 45.4431 148.957 43.5 146.5C44.1451 145.188 45.1451 144.188 46.5 143.5C47.4977 151.472 47.831 159.472 47.5 167.5C42.9328 167.744 38.5994 168.91 34.5 171C32.7397 171.965 32.4063 173.132 33.5 174.5C35.4086 173.652 37.4086 173.318 39.5 173.5Z" fill="#555555"/>
<path fill-rule="evenodd" clip-rule="evenodd" d="M123.5 152.5C125.582 153.585 125.916 155.085 124.5 157C121.918 157.542 119.918 156.708 118.5 154.5C120.117 155.038 121.784 155.371 123.5 155.5C123.5 154.5 123.5 153.5 123.5 152.5Z" fill="#555555"/>
<path fill-rule="evenodd" clip-rule="evenodd" d="M195.5 137.5C196.496 137.414 197.329 137.748 198 138.5C198.5 145.492 198.666 152.492 198.5 159.5C195.914 158.362 194.247 156.362 193.5 153.5C194.496 153.414 195.329 153.748 196 154.5C198.038 148.759 197.871 143.092 195.5 137.5Z" fill="#555555"/>
<path fill-rule="evenodd" clip-rule="evenodd" d="M76.5 144.5C74.2512 145.08 72.5846 146.413 71.5 148.5C71.1667 149.5 70.5 150.167 69.5 150.5C66.9108 151.419 64.9108 153.086 63.5 155.5C60.4181 157.372 57.7514 159.705 55.5 162.5C54.5 162.833 53.8333 163.5 53.5 164.5C53.5 165.167 53.1667 165.5 52.5 165.5C51.8333 165.833 51.1667 166.167 50.5 166.5C48.5682 165.024 48.2348 163.357 49.5 161.5C49.3505 162.552 49.5172 163.552 50 164.5C54.335 161.331 58.1684 157.664 61.5 153.5C67.3637 148.97 73.197 144.304 79 139.5C78.9421 141.435 78.1088 143.102 76.5 144.5Z" fill="#555555"/>
<path fill-rule="evenodd" clip-rule="evenodd" d="M78.5 153.5C78.5 154.5 78.5 155.5 78.5 156.5C80.5 156.5 82.5 156.5 84.5 156.5C82.294 157.972 79.9607 158.305 77.5 157.5C77.2322 155.901 77.5655 154.568 78.5 153.5Z" fill="#555555"/>
<path fill-rule="evenodd" clip-rule="evenodd" d="M189.5 148.5C191.207 149.873 192.54 151.539 193.5 153.5C194.247 156.362 195.914 158.362 198.5 159.5C198.5 160.167 198.5 160.833 198.5 161.5C195.167 161.167 191.833 160.833 188.5 160.5C186.214 160.405 184.214 159.738 182.5 158.5C181.657 156.827 180.324 155.66 178.5 155C178.728 154.601 179.062 154.435 179.5 154.5C183.259 155.544 186.925 156.878 190.5 158.5C191.167 158.167 191.833 157.833 192.5 157.5C191.441 155.466 190.441 153.466 189.5 151.5C190.116 150.798 190.116 149.798 189.5 148.5Z" fill="#555555"/>
<path fill-rule="evenodd" clip-rule="evenodd" d="M63.5 155.5C63.4894 157.017 62.8228 158.184 61.5 159C59.5952 160.421 57.5952 161.588 55.5 162.5C57.7514 159.705 60.4181 157.372 63.5 155.5Z" fill="#555555"/>
<path fill-rule="evenodd" clip-rule="evenodd" d="M55.5 162.5C55.5 163.833 54.8333 164.5 53.5 164.5C53.8333 163.5 54.5 162.833 55.5 162.5Z" fill="#555555"/>
<path fill-rule="evenodd" clip-rule="evenodd" d="M13.5 16.5C14.1667 16.5 14.8333 16.5 15.5 16.5C15.5 53.8333 15.5 91.1667 15.5 128.5C15.168 139.187 15.5013 149.854 16.5 160.5C17.4168 159.873 18.4168 159.539 19.5 159.5C20.4916 159.328 21.1583 159.662 21.5 160.5C19.3024 160.875 17.3024 161.542 15.5 162.5C14.1714 185.337 14.1714 208.337 15.5 231.5C16.1067 231.376 16.44 231.043 16.5 230.5C19.0094 229.079 21.3428 227.412 23.5 225.5C24.1667 225.5 24.5 225.833 24.5 226.5C22.5 228.167 20.5 229.833 18.5 231.5C17.9569 231.56 17.6236 231.893 17.5 232.5C19.6309 233.169 21.6309 233.835 23.5 234.5C20.1667 234.5 16.8333 234.5 13.5 234.5C13.5 211.833 13.5 189.167 13.5 166.5C13.5 116.5 13.5 66.5 13.5 16.5Z" fill="#555555"/>
<path fill-rule="evenodd" clip-rule="evenodd" d="M138.5 182.5C138.5 182.833 138.5 183.167 138.5 183.5C128.387 183.942 118.387 183.108 108.5 181C99.6118 175.942 90.6118 171.109 81.5 166.5C79.874 166.062 78.2073 165.728 76.5 165.5C71.0285 166.988 65.5285 168.321 60 169.5C57.4719 169.275 54.9719 168.942 52.5 168.5C51.325 168.719 50.325 168.386 49.5 167.5C49.6236 166.893 49.9569 166.56 50.5 166.5C51.1667 166.167 51.8333 165.833 52.5 165.5C52.6107 166.117 52.944 166.617 53.5 167C59.3388 167.849 65.0054 167.183 70.5 165C81.7598 163.753 91.4264 167.086 99.5 175C112.031 180.557 125.031 183.057 138.5 182.5Z" fill="#555555"/>
<path fill-rule="evenodd" clip-rule="evenodd" d="M137.5 162.5C136.738 164.262 135.404 165.262 133.5 165.5C134.262 163.738 135.596 162.738 137.5 162.5Z" fill="#555555"/>
<path fill-rule="evenodd" clip-rule="evenodd" d="M15.5 162.5C15.1692 185.339 15.5025 208.006 16.5 230.5C16.44 231.043 16.1067 231.376 15.5 231.5C14.1714 208.337 14.1714 185.337 15.5 162.5Z" fill="#555555"/>
<path fill-rule="evenodd" clip-rule="evenodd" d="M144.5 151.5C142.5 153.833 140.5 156.167 138.5 158.5C132.477 164.68 125.144 168.513 116.5 170C119.849 170.388 123.183 170.221 126.5 169.5C122.977 171.952 119.144 172.619 115 171.5C114.517 170.552 114.351 169.552 114.5 168.5C118.188 167.828 121.855 166.995 125.5 166C132.253 161.634 138.586 156.801 144.5 151.5Z" fill="#555555"/>
<path fill-rule="evenodd" clip-rule="evenodd" d="M138.5 158.5C138.938 158.435 139.272 158.601 139.5 159C138.177 159.816 137.511 160.983 137.5 162.5C135.596 162.738 134.262 163.738 133.5 165.5C131.973 165.427 130.973 166.094 130.5 167.5C129.486 168.674 128.153 169.34 126.5 169.5C123.183 170.221 119.849 170.388 116.5 170C125.144 168.513 132.477 164.68 138.5 158.5Z" fill="#555555"/>
<path fill-rule="evenodd" clip-rule="evenodd" d="M133.5 165.5C133.027 166.906 132.027 167.573 130.5 167.5C130.973 166.094 131.973 165.427 133.5 165.5Z" fill="#555555"/>
<path fill-rule="evenodd" clip-rule="evenodd" d="M81.5 166.5C81.5 167.167 81.1667 167.5 80.5 167.5C71.9539 169.344 63.2872 170.344 54.5 170.5C52.8333 170.5 51.1667 170.5 49.5 170.5C50.5 169.833 51.5 169.167 52.5 168.5C54.9719 168.942 57.4719 169.275 60 169.5C65.5285 168.321 71.0285 166.988 76.5 165.5C78.2073 165.728 79.874 166.062 81.5 166.5Z" fill="#555555"/>
<path fill-rule="evenodd" clip-rule="evenodd" d="M80.5 167.5C82.2608 168.313 83.9275 169.313 85.5 170.5C82.4788 169.995 79.4788 169.328 76.5 168.5C72.2638 169.976 67.9304 170.976 63.5 171.5C60.2869 171.81 57.2869 171.477 54.5 170.5C63.2872 170.344 71.9539 169.344 80.5 167.5Z" fill="#555555"/>
<path fill-rule="evenodd" clip-rule="evenodd" d="M85.5 170.5C90.1967 172.178 94.1967 174.844 97.5 178.5C93.1477 176.327 89.1477 173.66 85.5 170.5Z" fill="#555555"/>
<path fill-rule="evenodd" clip-rule="evenodd" d="M47.5 173.5C48.1428 184.552 47.4762 195.219 45.5 205.5C46.8082 194.507 46.8082 183.507 45.5 172.5C43.5 172.833 41.5 173.167 39.5 173.5C41.6174 171.345 44.284 170.345 47.5 170.5C47.5 171.5 47.5 172.5 47.5 173.5Z" fill="#555555"/>
<path fill-rule="evenodd" clip-rule="evenodd" d="M97.5 178.5C99.3797 178.229 100.713 178.896 101.5 180.5C99.6203 180.771 98.287 180.104 97.5 178.5Z" fill="#555555"/>
<path fill-rule="evenodd" clip-rule="evenodd" d="M101.5 180.5C103.698 180.12 105.365 180.787 106.5 182.5C104.447 182.598 102.78 181.931 101.5 180.5Z" fill="#555555"/>
<path fill-rule="evenodd" clip-rule="evenodd" d="M49.5 172.5C49.5 182.833 49.5 193.167 49.5 203.5C60.8333 204.167 72.1667 204.833 83.5 205.5C71.8286 205.333 60.1619 205.5 48.5 206C47.6195 206.708 46.9528 207.542 46.5 208.5C43.5526 209.781 41.2193 211.781 39.5 214.5C39.1667 215.5 38.5 216.167 37.5 216.5C35.2512 217.08 33.5846 218.413 32.5 220.5C29.5726 221.757 27.2393 223.757 25.5 226.5C25.1667 226.5 24.8333 226.5 24.5 226.5C24.5 225.833 24.1667 225.5 23.5 225.5C28.1667 221.167 32.8333 216.833 37.5 212.5C37.8333 211.5 38.5 210.833 39.5 210.5C42.0892 209.581 44.0892 207.914 45.5 205.5C47.4762 195.219 48.1428 184.552 47.5 173.5C48.1667 173.167 48.8333 172.833 49.5 172.5Z" fill="#555555"/>
<path fill-rule="evenodd" clip-rule="evenodd" d="M81.5 166.5C90.6118 171.109 99.6118 175.942 108.5 181C118.387 183.108 128.387 183.942 138.5 183.5C138.833 183.5 139.167 183.5 139.5 183.5C138.432 184.434 137.099 184.768 135.5 184.5C125.725 184.908 116.058 184.242 106.5 182.5C105.365 180.787 103.698 180.12 101.5 180.5C100.713 178.896 99.3797 178.229 97.5 178.5C94.1967 174.844 90.1967 172.178 85.5 170.5C83.9275 169.313 82.2608 168.313 80.5 167.5C81.1667 167.5 81.5 167.167 81.5 166.5Z" fill="#555555"/>
<path fill-rule="evenodd" clip-rule="evenodd" d="M203.5 139.5C202.5 139.5 201.5 139.5 200.5 139.5C200.5 160.833 200.5 182.167 200.5 203.5C199.833 203.167 199.167 202.833 198.5 202.5C198.5 189.5 198.5 176.5 198.5 163.5C199.493 155.35 199.826 147.017 199.5 138.5C201.099 138.232 202.432 138.566 203.5 139.5Z" fill="#555555"/>
<path fill-rule="evenodd" clip-rule="evenodd" d="M232.5 15.5C232.833 15.5 233.167 15.5 233.5 15.5C233.168 59.6698 233.501 103.67 234.5 147.5C234.5 175.833 234.5 204.167 234.5 232.5C230.332 230.577 226.665 227.91 223.5 224.5C223.5 223.833 223.833 223.5 224.5 223.5C227.414 224.906 229.914 226.906 232 229.5C232.5 204.836 232.667 180.169 232.5 155.5C232.5 154.5 232.5 153.5 232.5 152.5C232.5 106.833 232.5 61.1667 232.5 15.5Z" fill="#555555"/>
<path fill-rule="evenodd" clip-rule="evenodd" d="M106.5 182.5C116.058 184.242 125.725 184.908 135.5 184.5C135.5 184.833 135.5 185.167 135.5 185.5C129.833 185.5 124.167 185.5 118.5 185.5C114.163 185.416 110.163 184.416 106.5 182.5Z" fill="#555555"/>
<path fill-rule="evenodd" clip-rule="evenodd" d="M139.5 183.5C142.815 184.329 146.148 185.162 149.5 186C150.756 186.417 151.423 187.25 151.5 188.5C150.391 188.443 149.391 188.11 148.5 187.5C144.339 185.937 140.005 185.271 135.5 185.5C135.5 185.167 135.5 184.833 135.5 184.5C137.099 184.768 138.432 184.434 139.5 183.5Z" fill="#555555"/>
<path fill-rule="evenodd" clip-rule="evenodd" d="M118.5 185.5C124.167 185.5 129.833 185.5 135.5 185.5C140.005 185.271 144.339 185.937 148.5 187.5C147.962 189.117 147.629 190.784 147.5 192.5C146.93 189.255 144.93 187.422 141.5 187C133.656 186.829 125.989 186.329 118.5 185.5Z" fill="#555555"/>
<path fill-rule="evenodd" clip-rule="evenodd" d="M235.5 113.5C235.967 152.501 236.133 191.501 236 230.5C235.722 231.416 235.222 232.082 234.5 232.5C234.5 204.167 234.5 175.833 234.5 147.5C234.172 135.988 234.505 124.654 235.5 113.5Z" fill="#555555"/>
<path fill-rule="evenodd" clip-rule="evenodd" d="M148.5 187.5C149.391 188.11 150.391 188.443 151.5 188.5C153.738 190.116 156.071 191.449 158.5 192.5C157.475 192.897 157.308 193.563 158 194.5C159.622 195.099 161.122 195.766 162.5 196.5C157.101 196.235 152.101 194.902 147.5 192.5C147.629 190.784 147.962 189.117 148.5 187.5Z" fill="#555555"/>
<path fill-rule="evenodd" clip-rule="evenodd" d="M188.5 160.5C191.833 160.833 195.167 161.167 198.5 161.5C198.5 162.167 198.5 162.833 198.5 163.5C198.5 176.5 198.5 189.5 198.5 202.5C197.432 203.434 196.099 203.768 194.5 203.5C190.014 202.264 185.681 200.43 181.5 198C173.736 196.481 166.069 194.648 158.5 192.5C156.071 191.449 153.738 190.116 151.5 188.5C151.423 187.25 150.756 186.417 149.5 186C146.148 185.162 142.815 184.329 139.5 183.5C139.167 183.5 138.833 183.5 138.5 183.5C138.5 183.167 138.5 182.833 138.5 182.5C142.687 182.395 146.687 183.228 150.5 185C152.5 185.667 153.833 187 154.5 189C162.605 192.11 170.938 194.443 179.5 196C183.99 197.274 188.323 198.941 192.5 201C193.833 201.667 195.167 201.667 196.5 201C197.821 188.562 197.821 176.062 196.5 163.5C193.616 162.791 190.949 161.791 188.5 160.5Z" fill="#555555"/>
<path fill-rule="evenodd" clip-rule="evenodd" d="M162.5 196.5C170.056 197.223 177.389 198.889 184.5 201.5C164.5 202.833 144.5 202.833 124.5 201.5C142.17 201.667 159.836 201.5 177.5 201C172.336 199.631 167.336 198.131 162.5 196.5Z" fill="#555555"/>
<path fill-rule="evenodd" clip-rule="evenodd" d="M49.5 170.5C51.1667 170.5 52.8333 170.5 54.5 170.5C57.2869 171.477 60.2869 171.81 63.5 171.5C59.3656 172.485 55.0323 172.818 50.5 172.5C50.1934 181.887 50.5267 191.22 51.5 200.5C70.8218 201.5 90.1552 201.833 109.5 201.5C104.167 202.167 98.8333 202.833 93.5 203.5C78.8333 203.5 64.1667 203.5 49.5 203.5C49.5 193.167 49.5 182.833 49.5 172.5C49.5 171.833 49.5 171.167 49.5 170.5Z" fill="#555555"/>
<path fill-rule="evenodd" clip-rule="evenodd" d="M109.5 201.5C114.5 201.5 119.5 201.5 124.5 201.5C144.5 202.833 164.5 202.833 184.5 201.5C185.756 201.461 186.756 201.961 187.5 203C173.171 203.5 158.837 203.667 144.5 203.5C133.833 203.5 123.167 203.5 112.5 203.5C106.167 203.5 99.8333 203.5 93.5 203.5C98.8333 202.833 104.167 202.167 109.5 201.5Z" fill="#555555"/>
<path fill-rule="evenodd" clip-rule="evenodd" d="M49.5 203.5C64.1667 203.5 78.8333 203.5 93.5 203.5C99.8333 203.5 106.167 203.5 112.5 203.5C114.833 204.167 117.167 204.833 119.5 205.5C107.5 205.5 95.5 205.5 83.5 205.5C72.1667 204.833 60.8333 204.167 49.5 203.5Z" fill="#555555"/>
<path fill-rule="evenodd" clip-rule="evenodd" d="M112.5 203.5C123.167 203.5 133.833 203.5 144.5 203.5C160.5 204.167 176.5 204.833 192.5 205.5C168.167 205.5 143.833 205.5 119.5 205.5C117.167 204.833 114.833 204.167 112.5 203.5Z" fill="#555555"/>
<path fill-rule="evenodd" clip-rule="evenodd" d="M158.5 192.5C166.069 194.648 173.736 196.481 181.5 198C185.681 200.43 190.014 202.264 194.5 203.5C194.5 204.833 193.833 205.5 192.5 205.5C176.5 204.833 160.5 204.167 144.5 203.5C158.837 203.667 173.171 203.5 187.5 203C186.756 201.961 185.756 201.461 184.5 201.5C177.389 198.889 170.056 197.223 162.5 196.5C161.122 195.766 159.622 195.099 158 194.5C157.308 193.563 157.475 192.897 158.5 192.5Z" fill="#555555"/>
<path fill-rule="evenodd" clip-rule="evenodd" d="M198.5 202.5C199.167 202.833 199.833 203.167 200.5 203.5C200.842 204.338 201.508 204.672 202.5 204.5C203.262 206.262 204.596 207.262 206.5 207.5C211.579 212.915 217.246 217.582 223.5 221.5C223.833 222.167 224.167 222.833 224.5 223.5C223.833 223.5 223.5 223.833 223.5 224.5C215.374 218.213 207.374 211.713 199.5 205C198.056 204.219 196.723 204.386 195.5 205.5C205.833 213.667 216.167 221.833 226.5 230C227.696 230.654 227.696 231.154 226.5 231.5C225.583 230.873 224.583 230.539 223.5 230.5C222.415 228.413 220.749 227.08 218.5 226.5C216.596 226.262 215.262 225.262 214.5 223.5C210.413 219.078 205.746 215.411 200.5 212.5C199.089 210.086 197.089 208.419 194.5 207.5C193.508 207.672 192.842 207.338 192.5 206.5C192.5 206.167 192.5 205.833 192.5 205.5C193.833 205.5 194.5 204.833 194.5 203.5C196.099 203.768 197.432 203.434 198.5 202.5Z" fill="#555555"/>
<path fill-rule="evenodd" clip-rule="evenodd" d="M202.5 204.5C204.404 204.738 205.738 205.738 206.5 207.5C204.596 207.262 203.262 206.262 202.5 204.5Z" fill="#555555"/>
<path fill-rule="evenodd" clip-rule="evenodd" d="M83.5 205.5C95.5 205.5 107.5 205.5 119.5 205.5C143.833 205.5 168.167 205.5 192.5 205.5C192.5 205.833 192.5 206.167 192.5 206.5C143.781 206.036 95.1141 206.703 46.5 208.5C46.9528 207.542 47.6195 206.708 48.5 206C60.1619 205.5 71.8286 205.333 83.5 205.5Z" fill="#555555"/>
<path fill-rule="evenodd" clip-rule="evenodd" d="M194.5 207.5C197.089 208.419 199.089 210.086 200.5 212.5C197.911 211.581 195.911 209.914 194.5 207.5Z" fill="#555555"/>
<path fill-rule="evenodd" clip-rule="evenodd" d="M45.5 205.5C44.0892 207.914 42.0892 209.581 39.5 210.5C40.9108 208.086 42.9108 206.419 45.5 205.5Z" fill="#555555"/>
<path fill-rule="evenodd" clip-rule="evenodd" d="M46.5 208.5C44.8065 211.19 42.4732 213.19 39.5 214.5C41.2193 211.781 43.5526 209.781 46.5 208.5Z" fill="#555555"/>
<path fill-rule="evenodd" clip-rule="evenodd" d="M200.5 212.5C205.746 215.411 210.413 219.078 214.5 223.5C210.067 220.916 205.734 218.082 201.5 215C200.748 214.329 200.414 213.496 200.5 212.5Z" fill="#555555"/>
<path fill-rule="evenodd" clip-rule="evenodd" d="M206.5 207.5C208.595 208.412 210.595 209.579 212.5 211C216.624 214.055 220.291 217.555 223.5 221.5C217.246 217.582 211.579 212.915 206.5 207.5Z" fill="#555555"/>
<path fill-rule="evenodd" clip-rule="evenodd" d="M37.5 216.5C36.4154 218.587 34.7488 219.92 32.5 220.5C33.5846 218.413 35.2512 217.08 37.5 216.5Z" fill="#555555"/>
<path fill-rule="evenodd" clip-rule="evenodd" d="M32.5 220.5C30.8065 223.19 28.4732 225.19 25.5 226.5C27.2393 223.757 29.5726 221.757 32.5 220.5Z" fill="#555555"/>
<path fill-rule="evenodd" clip-rule="evenodd" d="M227.5 152.5C229.411 153.075 231.078 154.075 232.5 155.5C232.667 180.169 232.5 204.836 232 229.5C229.914 226.906 227.414 224.906 224.5 223.5C224.167 222.833 223.833 222.167 223.5 221.5C225.941 222.557 228.275 223.89 230.5 225.5C230.833 224 231.167 222.5 231.5 221C230.716 199.179 230.216 177.346 230 155.5C228.955 154.627 228.122 153.627 227.5 152.5Z" fill="#555555"/>
<path fill-rule="evenodd" clip-rule="evenodd" d="M218.5 226.5C220.749 227.08 222.415 228.413 223.5 230.5C221.251 229.92 219.585 228.587 218.5 226.5Z" fill="#555555"/>
<path fill-rule="evenodd" clip-rule="evenodd" d="M173.5 235.5C180.5 234.833 187.5 234.167 194.5 233.5C195.5 233.5 196.5 233.5 197.5 233.5C201.555 233.824 205.555 233.491 209.5 232.5C190.178 231.5 170.845 231.167 151.5 231.5C120.5 231.5 89.5 231.5 58.5 231.5C108.334 230.409 158.334 229.909 208.5 230C212.169 231.925 212.169 233.592 208.5 235C196.838 235.5 185.171 235.667 173.5 235.5Z" fill="#555555"/>
<path fill-rule="evenodd" clip-rule="evenodd" d="M24.5 226.5C24.8333 226.5 25.1667 226.5 25.5 226.5C24.8592 227.482 24.1925 228.482 23.5 229.5C35.1708 230.278 46.8374 230.944 58.5 231.5C89.5 231.5 120.5 231.5 151.5 231.5C151.5 231.833 151.5 232.167 151.5 232.5C106.997 232.832 62.6635 232.499 18.5 231.5C20.5 229.833 22.5 228.167 24.5 226.5Z" fill="#555555"/>
<path fill-rule="evenodd" clip-rule="evenodd" d="M151.5 232.5C151.5 232.167 151.5 231.833 151.5 231.5C170.845 231.167 190.178 231.5 209.5 232.5C205.555 233.491 201.555 233.824 197.5 233.5C182.342 232.504 167.009 232.17 151.5 232.5Z" fill="#555555"/>
<path fill-rule="evenodd" clip-rule="evenodd" d="M223.5 224.5C226.665 227.91 230.332 230.577 234.5 232.5C232.034 233.634 229.367 233.801 226.5 233C225.058 232.623 224.058 231.79 223.5 230.5C224.583 230.539 225.583 230.873 226.5 231.5C227.696 231.154 227.696 230.654 226.5 230C216.167 221.833 205.833 213.667 195.5 205.5C196.723 204.386 198.056 204.219 199.5 205C207.374 211.713 215.374 218.213 223.5 224.5Z" fill="#555555"/>
<path fill-rule="evenodd" clip-rule="evenodd" d="M18.5 231.5C62.6635 232.499 106.997 232.832 151.5 232.5C167.009 232.17 182.342 232.504 197.5 233.5C196.5 233.5 195.5 233.5 194.5 233.5C172.167 233.5 149.833 233.5 127.5 233.5C92.8333 233.833 58.1667 234.167 23.5 234.5C21.6309 233.835 19.6309 233.169 17.5 232.5C17.6236 231.893 17.9569 231.56 18.5 231.5Z" fill="#555555"/>
<path fill-rule="evenodd" clip-rule="evenodd" d="M127.5 233.5C149.833 233.5 172.167 233.5 194.5 233.5C187.5 234.167 180.5 234.833 173.5 235.5C143.5 235.5 113.5 235.5 83.5 235.5C98.1667 234.833 112.833 234.167 127.5 233.5Z" fill="#555555"/>
<path fill-rule="evenodd" clip-rule="evenodd" d="M13.5 166.5C13.5 189.167 13.5 211.833 13.5 234.5C16.8333 234.5 20.1667 234.5 23.5 234.5C58.1667 234.167 92.8333 233.833 127.5 233.5C112.833 234.167 98.1667 234.833 83.5 235.5C61.1837 236.601 38.8503 236.767 16.5 236C12.2431 235.336 10.5764 232.836 11.5 228.5C12.1667 207.833 12.8333 187.167 13.5 166.5Z" fill="#555555"/>
</svg>
